<?xml version="1.0" encoding="UTF-8"?>
<svg width="50px" height="50px" viewBox="0 0 50 50" version="1.1" xmlns="http://www.w3.org/2000/svg" xmlns:xlink="http://www.w3.org/1999/xlink">
    <!-- Generator: Sketch 45.2 (43514) - http://www.bohemiancoding.com/sketch -->
    <title>empty state icon</title>
    <desc>Created with Sketch.</desc>
    <defs></defs>
    <g id="Page-1" stroke="none" stroke-width="1" fill="none" fill-rule="evenodd">
        <g id="Multiple-Bet-Slip_360_No-Selection-(Expanded)" transform="translate(-155.000000, -739.000000)">
            <g id="empty-state-icon" transform="translate(156.000000, 740.000000)">
                <g>
                    <g id="waving-flag" opacity="0.26" transform="translate(24.000000, 25.766516) rotate(18.000000) translate(-24.000000, -25.766516) translate(13.661538, 12.184615)" fill-rule="nonzero" fill="#000000">
                        <path d="M20.0355249,1.18233705 C19.6650535,0.948775815 19.2008862,0.923569231 18.8066068,1.1153172 L16.5679458,2.20530919 C14.4240443,3.24862452 11.9157563,3.21719043 9.79926646,2.12002197 C7.57921477,0.969771416 4.94367508,1.00529787 2.75103508,2.1892956 L2.75103508,1.36334998 C2.75109415,0.610236567 2.14277908,0 1.39309292,0 C0.643406769,0 0.0350916923,0.610236567 0.0350916923,1.36334998 L0.0350916923,25.7899531 C0.0350916923,26.5430665 0.643406769,27.1533031 1.39303385,27.1533031 C2.14272,27.1533031 2.75103508,26.5430665 2.75103508,25.7899531 L2.75103508,13.3232512 C4.943616,12.1392535 7.57921477,12.1036678 9.79926646,13.2540369 C11.9157563,14.3511461 14.4240443,14.3825802 16.5679458,13.3393242 L19.9152443,11.7096147 C20.3528862,11.4965746 20.6313157,11.0510408 20.6313157,10.562389 L20.6313157,2.26283951 C20.6313748,1.82353324 20.4059963,1.41524589 20.0355249,1.18233705 Z" id="Shape"></path>
                    </g>
                    <circle id="Oval" stroke-opacity="0.26" stroke="#000000" cx="24" cy="24" r="24"></circle>
                </g>
            </g>
        </g>
    </g>
</svg>