<svg viewBox="0 0 100 100" xmlns="http://www.w3.org/2000/svg">
  <symbol viewBox="0 0 44 44" id="icon-back">
    <title>back</title>
    <desc>Created with Sketch.</desc>
    <!-- Generator: Sketch 45.2 (43514) - http://www.bohemiancoding.com/sketch -->
    <g id="back-symbols" stroke="none" stroke-width="1" >
      <g id="back-back" >
        <g id="back-Shape">
          <path d="M22,0 C9.8,0 0,9.8 0,22 C0,34.2 9.8,44 22,44 C34.2,44 44,34.2 44,22 C44,9.8 34.2,0 22,0 Z M35,23 C35,23.6 34.6,24 34,24 L17.4,24 C17,24 16.7,24.5 17,24.9 L21,28.9 C21.4,29.3 21.4,29.9 21,30.3 L19.6,31.7 C19.4,31.9 19.2,32 18.9,32 C18.6,32 18.4,31.9 18.2,31.7 L9.2,22.7 C9.1,22.5 9,22.3 9,22 C9,21.7 9.1,21.5 9.3,21.3 L18.3,12.3 C18.5,12.1 18.7,12 19,12 C19.3,12 19.5,12.1 19.7,12.3 L21.1,13.7 C21.5,14.1 21.5,14.7 21.1,15.1 L17.1,19.1 C16.8,19.4 17,20 17.5,20 L34,20 C34.6,20 35,20.4 35,21 L35,23 Z"
          /> </g>
      </g>
    </g>
  </symbol>
  <symbol viewBox="0 0 24 24" id="icon-badminton">
    <title>badminton (1)</title>
    <desc>Created with Sketch.</desc>
    <!-- Generator: Sketch 45.2 (43514) - http://www.bohemiancoding.com/sketch -->
    <g id="badminton-symbols" stroke="none" stroke-width="1"  opacity="1">
      <g id="badminton-badminton" transform="translate(-277.000000, -12.000000)">
        <g id="badminton-badminton-(1)" transform="translate(277.000000, 12.000000)">
          <path d="M19.1787168,8.88333069 C19.2724587,7.78299434 18.9174561,6.65091676 18.108016,5.77479666 C18.0871151,5.75225805 18.0652784,5.73049932 18.0425839,5.70944249 C17.1663858,4.89984637 16.0341522,4.54538973 14.9339718,4.63866369 C14.9537808,3.38289674 14.5248454,2.18647885 13.6757092,1.33726469 C12.8150308,0.476274301 11.7805945,0 10.8163477,0 C10.6306576,0 10.4475412,0.0177033349 10.2688701,0.0536559226 C9.57469661,0.193488872 8.62370778,0.661730382 8.03598825,2.10022383 L6.21238878,6.5729285 C6.21098499,6.57597005 6.20981517,6.57901159 6.20856736,6.58205313 L3.36215186,13.5634841 L6.77008282,16.9713371 L10.6038297,11.9817263 L11.8353423,13.2132389 L6.84549747,17.0468298 L10.263177,20.4645872 L17.237901,17.6125566 C17.2414884,17.6111528 17.2451539,17.609671 17.2487414,17.6082672 L21.7177026,15.7808463 C23.1553382,15.1933608 23.6237357,14.2423719 23.7634906,13.5482764 C23.9861471,12.4413891 23.5064413,11.1676848 22.4798039,10.1412813 C21.6307457,9.29230113 20.4335479,8.86414558 19.1787168,8.88333069 Z M14.0945062,7.43859819 C14.7460201,6.82685828 15.7481693,6.80751719 16.4204281,7.39703044 C17.0099413,8.06921125 16.9904442,9.07120441 16.3785484,9.72264034 L13.7063586,11.7757593 L12.0414653,10.1107099 L14.0945062,7.43859819 Z M5.26787297,15.0867508 L7.71257094,9.09031153 L8.93542685,10.3133234 L5.26787297,15.0867508 Z M10.3730624,8.4422291 L8.67089067,6.74005734 L10.2021902,2.98445472 C10.2903169,2.76842724 10.4763969,2.39845093 10.7305606,2.34729064 C10.9894036,2.29519448 11.5042041,2.47433351 12.0211883,2.99147366 C12.7004661,3.67082939 12.7832896,4.93572097 12.2303528,6.024905 L10.3730624,8.4422291 Z M8.6899978,18.5803909 L13.5038231,14.8818757 L14.7317483,16.1098788 L8.6899978,18.5803909 Z M21.4700119,13.0866639 C21.4187736,13.3409056 21.0487973,13.5269076 20.8325358,13.6153463 L17.0803647,15.1495314 L15.3751514,13.4443181 L17.7923975,11.5869497 C18.8815815,11.0341689 20.1463951,11.1169144 20.8256729,11.7961142 C21.342813,12.3130204 21.522186,12.8274309 21.4700119,13.0866639 Z"
          id="badminton-XMLID_224_" />
          <path d="M8.19212075,21.7021829 L2.12611593,15.6361781 L1.29905044,16.4633216 C-0.387055732,18.1487259 -0.434862535,20.8355774 1.18986688,22.5797848 C1.20858406,22.6000618 1.22831509,22.6195588 1.24843606,22.638432 C2.06606497,23.4000653 3.13224247,23.8194082 4.2506721,23.8194082 C5.42704701,23.8194082 6.5330765,23.3613832 7.36505526,22.5294044 L8.19212075,21.7021829 Z"
          id="badminton-XMLID_231_" /> </g>
      </g>
    </g>
  </symbol>
  <symbol viewBox="0 0 25 24" id="icon-BasketballandAmericanfootball">
    <title>Group 2</title>
    <desc>Created with Sketch.</desc>
    <!-- Generator: Sketch 45.2 (43514) - http://www.bohemiancoding.com/sketch -->
    <g id="BasketballandAmericanfootball-basketballAndRugby" stroke="none" stroke-width="1"  opacity="1">
      <g id="BasketballandAmericanfootball-Sports-Carousell" transform="translate(-81.000000, -12.000000)" >
        <g id="BasketballandAmericanfootball-Group-2" transform="translate(81.000000, 12.000000)">
          <g id="BasketballandAmericanfootball-ball-of-basketball" >
            <path d="M9.25404592,1.37457032 C9.44762045,1.11947748 9.41649588,0.578414681 9.3889424,0.101125099 C9.38789208,0.0805519723 9.38673672,0.0604313846 9.38558137,0.0399975005 C9.11424792,0.0142375785 8.83958846,0 8.56160297,0 C7.49640038,0 6.47716694,0.195114004 5.53646264,0.548825582 C6.20751401,0.869466989 7.24624845,1.42135591 8.40083353,2.23679669 C8.79477468,1.89972463 9.09187604,1.58855173 9.25404592,1.37457032 Z"
            id="BasketballandAmericanfootball-Shape" />
            <path d="M13.5898843,6.22954979 C13.1681096,6.27692716 12.8124002,6.34574792 12.5081917,6.44227801 C13.9624339,8.96681999 14.5294333,12.1562812 14.6681809,14.4669114 C16.108874,13.0073682 17.0238104,11.0342626 17.110322,8.84870726 C16.1176267,7.63548456 14.8025523,6.09277853 13.5898843,6.22954979 Z"
            id="BasketballandAmericanfootball-Shape" />
            <path d="M4.94464064,4.05043444 C5.96642987,3.83902902 6.92639009,3.32769457 7.69179547,2.78795459 C6.09502442,1.69448071 4.76321484,1.12699659 4.49828837,1.01897897 C2.84168391,1.909402 1.51603623,3.3281123 0.744819056,5.04709975 C1.74724733,4.64997922 2.83289621,4.44793788 3.89921914,4.25108334 C4.24418022,4.18737975 4.60076488,4.12155271 4.94464064,4.05043444 Z"
            id="BasketballandAmericanfootball-Shape" />
            <path d="M10.8593246,4.29783412 C10.9505276,4.38896855 11.0414856,4.48166946 11.1318134,4.5761109 C11.4651509,4.9240439 11.7676089,5.30459453 12.0449642,5.70721515 C12.4488834,5.55557972 12.9243997,5.44804945 13.4936047,5.38406737 C14.8347622,5.23323259 16.0272989,6.28956344 17.0508387,7.45251949 C16.8313912,5.68953131 16.0709223,4.09391301 14.9377989,2.83554082 C14.3192986,2.90965281 13.6297616,3.03521503 12.9269555,3.24373115 C12.4659337,3.38064166 11.7317229,3.75262885 10.8593246,4.29783412 Z"
            id="BasketballandAmericanfootball-Shape" />
            <path d="M9.73337833,8.69181541 C10.0843613,7.50981791 10.4909063,6.65775627 11.2785785,6.10468379 C11.0421858,5.76726362 10.7877976,5.45059063 10.5122278,5.16291496 C10.3847536,5.02979882 10.255844,4.90124289 10.1263742,4.77494965 C6.96619733,6.91368458 2.63736107,10.8424556 2.24373502,14.2464552 C3.5576891,15.6758524 5.35591212,16.6561219 7.38023466,16.9342246 C8.11731634,15.4751339 8.81105468,12.5089485 9.2234115,10.7448464 C9.42153743,9.89751901 9.59253001,9.16590241 9.73337833,8.69181541 Z"
            id="BasketballandAmericanfootball-Shape" />
            <path d="M6.15027141,6.81743298 C7.25213026,5.80788771 8.41574811,4.90260051 9.48004042,4.17502195 C9.12527632,3.86294398 8.76942688,3.57526831 8.42008945,3.31143797 C7.53610259,3.97214516 6.37871666,4.62289649 5.11888922,4.88341981 C4.76608572,4.95641786 4.40480962,5.02314998 4.05554221,5.08761941 C2.70979835,5.33609822 1.41797107,5.57674463 0.331586974,6.17942237 C0.120016909,6.91988089 0.00430632433,7.70054577 0.00430632433,8.50843262 C0.00430632433,10.3157 0.572811158,11.9901994 1.53914334,13.3681463 C2.16517086,10.9036528 4.31245122,8.50126161 6.15027141,6.81743298 Z"
            id="BasketballandAmericanfootball-Shape" />
            <path d="M10.2171571,3.68906451 C11.2352002,3.04374365 12.1128851,2.59754003 12.6823352,2.42853405 C13.1937025,2.27668976 13.6953368,2.16609614 14.1703628,2.08543974 C13.0726703,1.13702207 11.7308826,0.461067793 10.2496471,0.166429983 C10.2824872,0.760648724 10.2968066,1.41303615 9.93728103,1.88701872 C9.7664635,2.11210474 9.47748463,2.42080608 9.10146899,2.75571987 C9.46971224,3.04071512 9.84394233,3.3515051 10.2171571,3.68906451 Z"
            id="BasketballandAmericanfootball-Shape" />
            <path d="M10.5539957,8.93274031 C10.4203946,9.3827731 10.2518528,10.1032503 10.0568778,10.9374192 C9.48116076,13.4004507 8.93026634,15.6043861 8.28690849,17.0098683 C8.37825158,17.0127576 8.46955966,17.0167956 8.56160297,17.0167956 C10.5559213,17.0167956 12.3892601,16.3366292 13.8442025,15.1994679 C13.7867499,12.7814815 13.2037506,9.36136452 11.735224,6.82251534 C11.1656688,7.24341158 10.8591145,7.90554601 10.5539957,8.93274031 Z"
            id="BasketballandAmericanfootball-Shape" /> </g>
          <g id="BasketballandAmericanfootball-rugby-balls" transform="translate(7.704119, 6.808974)" >
            <path d="M11.2862494,0.197460245 C12.2536395,0.0534315319 13.169003,0.00141853625 13.9840227,0.00141853625 C14.4160241,0.00141853625 14.8479303,0.0165495895 15.267567,0.0463388507 C16.238286,0.115279712 17.0225844,0.895096371 17.0919215,1.86026843 C17.165824,2.88908549 17.1754303,4.28057497 16.9431654,5.82195646 L11.2862494,0.197460245 Z M0.29047383,11.1240667 C0.0582089011,12.6654482 0.067815272,14.0569376 0.141717749,15.0857547 C0.211054823,16.0509268 0.995448299,16.8307434 1.96607221,16.8996843 C2.38561382,16.9294735 2.81742495,16.9446046 3.24961653,16.9446046 C3.24980675,16.9446046 3.24980675,16.9446046 3.24999698,16.9446046 C4.06492159,16.9446046 4.98018999,16.8925916 5.94738985,16.7486575 L0.29047383,11.1240667 Z M16.7323008,6.94988191 C16.2636811,9.04231744 15.3082752,11.305261 13.4623302,13.2683261 C13.4550065,13.2760807 13.4474926,13.2835517 13.4396934,13.2908335 C11.4741918,15.1180028 9.20242779,16.0707863 7.08179763,16.5390924 L0.501338428,9.99614122 C0.969958127,7.90370568 1.92536403,5.6407621 3.77130905,3.67769707 C3.77863272,3.66994241 3.78614661,3.66247145 3.79394584,3.65518963 C5.75944738,1.82802038 8.03121144,0.875236863 10.1518416,0.406930764 L16.7323008,6.94988191 Z M12.1443551,6.98676385 L11.4643001,6.31059491 L11.9933163,5.78460167 C12.1790712,5.59990825 12.1790712,5.30050254 11.9933163,5.11590368 C11.8075615,4.93130483 11.5065301,4.93130483 11.3207753,5.11590368 L10.7917591,5.64189692 L10.1117041,4.96572798 C9.92604433,4.7812237 9.625013,4.78112913 9.43916301,4.96572798 C9.25340814,5.1504214 9.25340814,5.44982712 9.43916301,5.63442597 L10.119218,6.31059491 L9.34186284,7.08350803 L8.66180787,6.40733908 C8.4761481,6.2228348 8.17511678,6.22274023 7.98926679,6.40733908 C7.80351191,6.5920325 7.80351191,6.89143822 7.98926679,7.07603707 L8.66932176,7.75220601 L7.89196662,8.52511913 L7.21191164,7.84895018 C7.02615677,7.66435133 6.72512544,7.66435133 6.53937057,7.84895018 C6.35361569,8.0336436 6.35361569,8.33304932 6.53937057,8.51764817 L7.21942554,9.19381711 L6.44207039,9.96673023 L5.76201542,9.29056129 C5.57626055,9.10596244 5.27522922,9.10596244 5.08947434,9.29056129 C4.90371947,9.47525471 4.90371947,9.77466042 5.08947434,9.95925927 L5.76952932,10.6354282 L5.24051313,11.1614215 C5.05475825,11.3461149 5.05475825,11.6455206 5.24051313,11.8301194 C5.33343812,11.9224189 5.45508711,11.9685686 5.57683122,11.9685686 C5.69857533,11.9685686 5.82022432,11.9224189 5.91314932,11.8301194 L6.44216551,11.3041262 L7.12222048,11.9802951 C7.21514547,12.0725946 7.33679447,12.1187443 7.45853857,12.1187443 C7.58028268,12.1187443 7.70193168,12.0725946 7.79485667,11.9802951 C7.98061154,11.7956017 7.98061154,11.496196 7.79485667,11.3115972 L7.1148017,10.6354282 L7.89215684,9.8625151 L8.57221181,10.538684 C8.66513681,10.6309835 8.7867858,10.6771332 8.90852991,10.6771332 C9.03027402,10.6771332 9.15192301,10.6309835 9.244848,10.538684 C9.43060288,10.3539906 9.43060288,10.0545849 9.244848,9.86998606 L8.56479303,9.19381711 L9.34214818,8.420904 L10.0222031,9.09707294 C10.1151281,9.18937237 10.2367771,9.23552208 10.3585212,9.23552208 C10.4801702,9.23552208 10.6019143,9.18937237 10.6948393,9.09707294 C10.8805942,8.91237952 10.8805942,8.61297381 10.6948393,8.42837496 L10.0147844,7.75220601 L10.7921395,6.9792929 L11.4721945,7.65546184 C11.5651195,7.74776127 11.6867685,7.79391098 11.8085126,7.79391098 C11.9301616,7.79391098 12.0519057,7.74776127 12.1448307,7.65546184 C12.3300149,7.47086299 12.3300149,7.17145727 12.1443551,6.98676385 Z"
            id="BasketballandAmericanfootball-Shape" /> </g>
        </g>
      </g>
    </g>
  </symbol>
  <symbol viewBox="0 0 24 21" id="icon-home">
    <title>home</title>
    <desc>Created with Sketch.</desc>
    <!-- Generator: Sketch 45.2 (43514) - http://www.bohemiancoding.com/sketch -->
    <g id="home-symbols" stroke="none" stroke-width="1" >
      <g id="home-Header" transform="translate(-144.000000, -22.000000)">
        <g id="home-Home-02" transform="translate(144.000000, 22.000000)">
          <polygon id="home-home" points="9.64285714 20.3142857 9.64285714 13.2428571 14.3571429 13.2428571 14.3571429 20.3142857 20.2714286 20.3142857 20.2714286 10.8857143 23.7857143 10.8857143 12 0.257142857 0.214285714 10.8857143 3.77142857 10.8857143 3.77142857 20.3142857"
          /> </g>
      </g>
    </g>
  </symbol>
  <symbol viewBox="0 0 6 11" id="icon-icon_arrow_back">
    <title>icon_arrow_back</title>
    <desc>Created with Sketch.</desc>
    <!-- Generator: Sketch 45.2 (43514) - http://www.bohemiancoding.com/sketch -->
    <g id="icon_arrow_back-symbols" stroke="none" stroke-width="1" fill="none" fill-rule="evenodd">
      <g id="icon_arrow_back-icon_arrow_back" fill-rule="nonzero" fill="#323232">
        <g id="icon_arrow_back-backward-arrow-copy-2">
          <path d="M1.58830508,5.48477742 L5.91461017,0.956148387 C6.01389831,0.852216129 6.01389831,0.683703226 5.91461017,0.579806452 L5.43522034,0.0779580645 C5.38755932,0.0280322581 5.32288136,0 5.25545763,0 C5.1880339,0 5.12335593,0.0280322581 5.07569492,0.0779580645 L0.0902033898,5.29660645 C-0.00908474576,5.40053871 -0.00908474576,5.56905161 0.0902033898,5.67294839 L5.07566102,10.8915968 C5.12332203,10.9415226 5.188,10.9695548 5.25542373,10.9695548 C5.32284746,10.9695548 5.38752542,10.9415226 5.43518644,10.8915968 L5.91457627,10.3897484 C6.01386441,10.2858161 6.01386441,10.1173032 5.91457627,10.0134065 L1.58830508,5.48477742 Z"
          id="icon_arrow_back-Shape" /> </g>
      </g>
    </g>
  </symbol>
  <symbol viewBox="0 0 6 11" id="icon-icon_arrow_next">
    <title>icon_arrow_next</title>
    <desc>Created with Sketch.</desc>
    <!-- Generator: Sketch 45.2 (43514) - http://www.bohemiancoding.com/sketch -->
    <g id="icon_arrow_next-symbols" stroke="none" stroke-width="1" fill="none" fill-rule="evenodd">
      <g id="icon_arrow_next-icon_arrow_next" fill-rule="nonzero" fill="#323232">
        <g id="icon_arrow_next-backward-arrow-copy-2" transform="translate(3.000000, 5.500000) rotate(-180.000000) translate(-3.000000, -5.500000) ">
          <path d="M1.58830508,5.48477742 L5.91461017,0.956148387 C6.01389831,0.852216129 6.01389831,0.683703226 5.91461017,0.579806452 L5.43522034,0.0779580645 C5.38755932,0.0280322581 5.32288136,0 5.25545763,0 C5.1880339,0 5.12335593,0.0280322581 5.07569492,0.0779580645 L0.0902033898,5.29660645 C-0.00908474576,5.40053871 -0.00908474576,5.56905161 0.0902033898,5.67294839 L5.07566102,10.8915968 C5.12332203,10.9415226 5.188,10.9695548 5.25542373,10.9695548 C5.32284746,10.9695548 5.38752542,10.9415226 5.43518644,10.8915968 L5.91457627,10.3897484 C6.01386441,10.2858161 6.01386441,10.1173032 5.91457627,10.0134065 L1.58830508,5.48477742 Z"
          id="icon_arrow_next-Shape" /> </g>
      </g>
    </g>
  </symbol>
  <symbol viewBox="0 0 11 6" id="icon-icon_arrowDown_black">
    <title>icon_arrowDown_black</title>
    <desc>Created with Sketch.</desc>
    <!-- Generator: Sketch 45.2 (43514) - http://www.bohemiancoding.com/sketch -->
    <g id="icon_arrowDown_black-symbols" stroke="none" stroke-width="1" >
      <g id="icon_arrowDown_black-icon_arrowDown_black" >
        <g id="icon_arrowDown_black-backward-arrow-copy-2" transform="translate(5.500000, 3.000000) scale(1, -1) rotate(90.000000) translate(-5.500000, -3.000000) translate(2.500000, -2.500000)">
          <path d="M1.58830508,5.48477742 L5.91461017,0.956148387 C6.01389831,0.852216129 6.01389831,0.683703226 5.91461017,0.579806452 L5.43522034,0.0779580645 C5.38755932,0.0280322581 5.32288136,0 5.25545763,0 C5.1880339,0 5.12335593,0.0280322581 5.07569492,0.0779580645 L0.0902033898,5.29660645 C-0.00908474576,5.40053871 -0.00908474576,5.56905161 0.0902033898,5.67294839 L5.07566102,10.8915968 C5.12332203,10.9415226 5.188,10.9695548 5.25542373,10.9695548 C5.32284746,10.9695548 5.38752542,10.9415226 5.43518644,10.8915968 L5.91457627,10.3897484 C6.01386441,10.2858161 6.01386441,10.1173032 5.91457627,10.0134065 L1.58830508,5.48477742 Z"
          id="icon_arrowDown_black-Shape" /> </g>
      </g>
    </g>
  </symbol>
  <symbol viewBox="0 0 11 6" id="icon-icon_arrowUp_black">
    <title>icon_arrowUp_black</title>
    <desc>Created with Sketch.</desc>
    <!-- Generator: Sketch 45.2 (43514) - http://www.bohemiancoding.com/sketch -->
    <g id="icon_arrowUp_black-symbols" stroke="none" stroke-width="1">
      <g id="icon_arrowUp_black-icon_arrowUp_black" >
        <g id="icon_arrowUp_black-backward-arrow-copy-2" transform="translate(5.500000, 3.000000) rotate(90.000000) translate(-5.500000, -3.000000) translate(2.500000, -2.500000)">
          <path d="M1.58830508,5.48477742 L5.91461017,0.956148387 C6.01389831,0.852216129 6.01389831,0.683703226 5.91461017,0.579806452 L5.43522034,0.0779580645 C5.38755932,0.0280322581 5.32288136,0 5.25545763,0 C5.1880339,0 5.12335593,0.0280322581 5.07569492,0.0779580645 L0.0902033898,5.29660645 C-0.00908474576,5.40053871 -0.00908474576,5.56905161 0.0902033898,5.67294839 L5.07566102,10.8915968 C5.12332203,10.9415226 5.188,10.9695548 5.25542373,10.9695548 C5.32284746,10.9695548 5.38752542,10.9415226 5.43518644,10.8915968 L5.91457627,10.3897484 C6.01386441,10.2858161 6.01386441,10.1173032 5.91457627,10.0134065 L1.58830508,5.48477742 Z"
          id="icon_arrowUp_black-Shape" /> </g>
      </g>
    </g>
  </symbol>
  <symbol viewBox="0 0 33 33" id="icon-member_c">
    <title>memeber</title>
    <desc>Created with Sketch.</desc>
    <!-- Generator: Sketch 46 (44423) - http://www.bohemiancoding.com/sketch -->
    <g id="member_c-Components" stroke="none" stroke-width="1" >
      <g id="member_c-Components---NAV" transform="translate(-505.000000, -1935.000000)">
        <path d="M530.595,1961.486 C528.228,1959.966 524.91,1959.628 524.201,1957.72 C524.11,1956.707 524.145,1955.999 524.145,1955.072 C524.604,1954.831 525.427,1953.295 525.566,1951.997 C525.927,1951.967 526.496,1951.615 526.663,1950.224 C526.753,1949.477 526.396,1949.057 526.178,1948.925 C526.765,1947.158 527.986,1941.691 523.921,1941.127 C523.502,1940.392 522.431,1940.02 521.039,1940.02 C515.469,1940.123 514.797,1944.226 516.018,1948.925 C515.801,1949.057 515.444,1949.477 515.533,1950.224 C515.7,1951.615 516.269,1951.967 516.63,1951.997 C516.769,1953.295 517.624,1954.831 518.085,1955.072 C518.085,1955.999 518.119,1956.707 518.028,1957.72 C517.318,1959.629 513.983,1959.966 511.605,1961.49 C508.783,1958.91 507,1955.213 507,1951.097 C507,1943.324 513.324,1937 521.098,1937 C528.872,1937 535.196,1943.324 535.196,1951.097 C535.196,1955.211 533.414,1958.907 530.595,1961.486 M521.098,1935 C512.221,1935 505,1942.22 505,1951.097 C505,1959.974 512.221,1967.195 521.098,1967.195 C529.974,1967.195 537.196,1959.974 537.196,1951.097 C537.196,1942.22 529.974,1935 521.098,1935"
        id="member_c-Fill-1" /> </g>
    </g>
  </symbol>
  <symbol viewBox="0 0 26 26" id="icon-memer">
    <title>Group</title>
    <desc>Created with Sketch.</desc>
    <!-- Generator: Sketch 46 (44423) - http://www.bohemiancoding.com/sketch -->
    <g id="memer-symbols" stroke="none" stroke-width="1" fill="none" fill-rule="evenodd">
      <g id="memer-Header" transform="translate(-318.000000, -20.000000)" fill-rule="nonzero" fill="#FFFFFF">
        <g id="memer-Group" transform="translate(318.000000, 20.000000)">
          <path d="M13,25.52 C19.9146051,25.52 25.52,19.9146051 25.52,13 C25.52,6.08539493 19.9146051,0.48 13,0.48 C6.08539493,0.48 0.48,6.08539493 0.48,13 C0.48,19.9146051 6.08539493,25.52 13,25.52 Z M13,23.52 C7.18996443,23.52 2.48,18.8100356 2.48,13 C2.48,7.18996443 7.18996443,2.48 13,2.48 C18.8100356,2.48 23.52,7.18996443 23.52,13 C23.52,18.8100356 18.8100356,23.52 13,23.52 Z"
          id="memer-Oval" />
          <path d="M15.36784,18.05344 C15.97456,19.6864 19.09024,19.80928 20.87248,21.3928 C20.24512,22.08352 16.47616,24.61504 13.26976,24.61504 C10.06336,24.61504 7.02496,23.2648 5.15008,21.37696 C6.94336,19.80784 10.05184,19.68064 10.65712,18.05344 C10.7272,17.27968 10.7008,16.73968 10.7008,16.03264 C10.34944,15.8488 9.69664,14.67616 9.59104,13.6864 C9.31552,13.66384 8.8816,13.39504 8.75392,12.33376 C8.68576,11.764 8.9584,11.44336 9.124,11.34256 C8.19232,7.75696 8.70496,4.62592 12.95488,4.54768 C14.01712,4.54768 14.83456,4.83136 15.15376,5.392 C18.25552,5.82304 17.32432,9.99424 16.876,11.34256 C17.04208,11.44336 17.31472,11.764 17.24608,12.33376 C17.11888,13.39504 16.68448,13.66384 16.40896,13.6864 C16.30288,14.67664 15.67504,15.8488 15.32464,16.03264 C15.32464,16.73968 15.29776,17.27968 15.36784,18.05344 Z"
          id="memer-Shape" /> </g>
      </g>
    </g>
  </symbol>
  <symbol viewBox="0 0 24 20" id="icon-menu">
    <title>menu</title>
    <desc>Created with Sketch.</desc>
    <!-- Generator: Sketch 45.2 (43514) - http://www.bohemiancoding.com/sketch -->
    <g id="menu-symbols" stroke="none" stroke-width="1" >
      <g id="menu-Menu" fill-rule="nonzero">
        <g id="menu-menu">
          <path d="M24,1 C24,0.4 23.6,0 23,0 L1,0 C0.4,0 0,0.4 0,1 L0,3 C0,3.6 0.4,4 1,4 L23,4 C23.6,4 24,3.6 24,3 L24,1 Z" id="menu-Shape" />
          <path d="M24,9 C24,8.4 23.6,8 23,8 L1,8 C0.4,8 0,8.4 0,9 L0,11 C0,11.6 0.4,12 1,12 L23,12 C23.6,12 24,11.6 24,11 L24,9 Z" id="menu-Shape" />
          <path d="M24,17 C24,16.4 23.6,16 23,16 L1,16 C0.4,16 0,16.4 0,17 L0,19 C0,19.6 0.4,20 1,20 L23,20 C23.6,20 24,19.6 24,19 L24,17 Z" id="menu-Shape" /> </g>
      </g>
    </g>
  </symbol>
  <symbol viewBox="0 0 24 24" id="icon-soccer-ball">
    <title>soccer-ball</title>
    <desc>Created with Sketch.</desc>
    <!-- Generator: Sketch 45.2 (43514) - http://www.bohemiancoding.com/sketch -->
    <g id="soccer-ball-symbols" stroke="none" stroke-width="1"  opacity="1">
      <g id="soccer-ball-Sports-Carousell" transform="translate(-19.000000, -12.000000)" >
        <g id="soccer-ball-soccer-ball" transform="translate(19.000000, 12.000000)">
          <path d="M23.7573333,11.2684444 C23.6382222,9.03555556 22.9173333,6.96177778 21.7315556,5.21955556 C20.1066667,2.83377778 17.6346667,1.07911111 14.7555556,0.364444444 C13.8355556,0.136 12.8826667,0.000888888889 11.8942222,0.000888888889 C10.616,0.000888888889 9.38577778,0.209777778 8.23111111,0.584888889 C5.44,1.49155556 3.10666667,3.40444444 1.64533333,5.89244444 C0.837333333,7.26311111 0.296888889,8.80444444 0.0968888889,10.4542222 C0.04,10.9271111 0,11.4062222 0,11.8942222 C0,14.5262222 0.870222222,16.9502222 2.32266667,18.9235556 C3.76,20.8755556 5.77244444,22.3733333 8.11555556,23.1626667 C9.30488889,23.5617778 10.5724444,23.7875556 11.8942222,23.7875556 C13.6808889,23.7875556 15.3688889,23.3804444 16.8906667,22.672 C18.5431111,21.9022222 19.9937778,20.7715556 21.1306667,19.3715556 C22.7884444,17.3271111 23.7884444,14.7244444 23.7884444,11.8942222 C23.7884444,11.6835556 23.7653333,11.4764444 23.7573333,11.2684444 Z M21.3422222,11.2684444 L18.8968889,15.5031111 L20.5084444,18.2942222 C19.4231111,19.7493333 17.984,20.9217778 16.3173333,21.6791111 L15.088,19.5537778 L10.1991111,19.5537778 L8.696,22.1564444 C6.36088889,21.4275556 4.36533333,19.9191111 3.01333333,17.9395556 L4.89066667,14.6897778 L2.44622222,10.4551111 L1.256,10.4551111 C1.48088889,8.784 2.08088889,7.23022222 2.98311111,5.89333333 L6.40444444,5.89333333 L8.84888889,1.65777778 L8.81866667,1.60177778 C9.79377778,1.30844444 10.8248889,1.14755556 11.8942222,1.14755556 C12.6711111,1.14755556 13.4293333,1.23555556 14.16,1.39288889 L14.0071111,1.65688889 L16.4515556,5.89244444 L20.8035556,5.89244444 C21.8524444,7.44355556 22.4924444,9.28711111 22.6088889,11.2684444 L21.3422222,11.2684444 Z"
          id="soccer-ball-Shape" />
          <polygon id="soccer-ball-Shape" points="9.44977778 7.51644444 7.00444444 11.7511111 9.44977778 15.9848889 14.3386667 15.9848889 16.784 11.7511111 14.3386667 7.51644444" /> </g>
      </g>
    </g>
  </symbol>
  <symbol viewBox="0 0 24 24" id="icon-tennis-ball">
    <title>tennis-ball</title>
    <desc>Created with Sketch.</desc>
    <!-- Generator: Sketch 45.2 (43514) - http://www.bohemiancoding.com/sketch -->
    <g id="tennis-ball-symbols" stroke="none" stroke-width="1" opacity="1">
      <g id="tennis-ball-Sports-Carousell" transform="translate(-148.000000, -12.000000)" >
        <g id="tennis-ball-tennis-ball" transform="translate(148.000000, 12.000000)">
          <path d="M10.8561951,0.0462439024 C8.17580488,0.296195122 5.55921951,1.44995122 3.50282927,3.50517073 C1.44643902,5.55980488 0.293853659,8.17639024 0.0444878049,10.8602927 C2.98770732,11.201561 6.11707317,12.7059512 8.6862439,15.275122 C11.2565854,17.844878 12.7627317,20.9765854 13.1010732,23.9174634 C15.7890732,23.6680976 18.3992195,22.5149268 20.4573659,20.460878 C22.5131707,18.4068293 23.6645854,15.7890732 23.9127805,13.1057561 C20.9765854,12.7650732 17.8419512,11.2606829 15.2727805,8.69092683 C12.7053659,6.1217561 11.1992195,2.98946341 10.8561951,0.0462439024 Z"
          id="tennis-ball-Shape" />
          <path d="M23.9607805,11.6195122 C23.873561,8.67219512 22.7075122,5.75239024 20.460878,3.50282927 C18.2130732,1.25326829 15.2897561,0.0913170732 12.342439,0 C12.6737561,2.57385366 14.0405854,5.33970732 16.3317073,7.63141463 C18.6228293,9.92312195 21.3851707,11.2876098 23.9607805,11.6195122 Z"
          id="tennis-ball-Shape" />
          <path d="M0.000585365854,12.3453659 C0.0872195122,15.2915122 1.25385366,18.2119024 3.50282927,20.4602927 C5.75004878,22.7075122 8.66985366,23.8753171 11.6165854,23.9607805 C11.2852683,21.390439 9.92019512,18.6263415 7.62790244,16.3346341 C5.33795122,14.0440976 2.57268293,12.6790244 0.000585365854,12.3453659 Z"
          id="tennis-ball-Shape" /> </g>
      </g>
    </g>
  </symbol>
  <symbol viewBox="0 0 24 24" id="icon-volleyball">
    <title>volleyball (2)</title>
    <desc>Created with Sketch.</desc>
    <!-- Generator: Sketch 45.2 (43514) - http://www.bohemiancoding.com/sketch -->
    <g id="volleyball-symbols" stroke="none" stroke-width="1"  opacity="1">
      <g id="volleyball-Sports-Carousell" transform="translate(-212.000000, -12.000000)" >
        <g id="volleyball-volleyball-(2)" transform="translate(212.000000, 12.000000)">
          <path d="M3.02004773,7.70881146 L3.04295943,7.87709785 C3.38405728,8.32353222 4.15377566,9.20987112 5.47658234,10.1296038 L5.73422434,10.0522768 C6.17538902,8.94873508 6.96423866,7.33621002 7.61836754,6.38938425 L7.6218043,6.38422912 C10.0772506,2.54056325 13.2286396,1.27881623 15.4398473,0.897221957 L15.4642482,0.564601432 C14.6704726,0.304095465 13.8668449,0.138558473 13.007599,0.0583102625 C12.6654702,0.0264057279 12.3558186,0 12.0302434,0 C11.5984726,0 11.180105,0.0484582339 10.7136802,0.152362768 C9.2670358,0.474902148 7.90361814,1.28815274 6.42294988,2.71182816 C4.85802387,4.21661098 3.74806683,5.84316945 3.02863962,7.68687351 L3.02004773,7.70881146 Z"
          id="volleyball-Shape" />
          <path d="M5.66646301,16.6786826 C7.08492601,17.1680191 8.60271122,17.4161527 10.1777757,17.4161527 L10.1781193,17.4161527 C10.7468449,17.4161527 11.3351599,17.3839618 11.9269117,17.3202673 C12.3461384,17.2751313 12.75958,17.2053652 13.1979379,17.1313604 L13.295599,17.1149212 L13.436506,16.9171933 C13.1670644,15.3026062 12.5387112,13.8082482 11.6673795,12.7090024 L11.4996086,12.6471408 C11.4487446,12.6571647 11.3981671,12.6670167 11.3538902,12.6753795 C10.4335274,12.8501384 9.51121718,12.864401 8.62934606,12.7174224 C5.83326014,12.2514558 3.55646778,10.7769737 1.86214797,8.33504535 C1.62999523,8.00042005 1.42957518,7.64832458 1.26421002,7.34800955 L0.95324105,7.36926014 C0.304439141,9.05653461 0.0127159905,10.976821 0.000744630072,11.6300334 L0.0274940334,11.7252888 C0.248133652,12.0726874 0.802424821,12.9353699 1.18436277,13.441432 C2.32954654,14.9585871 3.83753699,16.0478663 5.66646301,16.6786826 Z"
          id="volleyball-Shape" />
          <path d="M2.37485442,6.42610024 C3.04450597,5.04956563 3.86474463,3.81451074 4.81254415,2.75541766 L4.57970406,2.50464916 C3.60601432,3.25426253 2.74378998,4.16935561 2.01714558,5.22438186 C1.94766587,5.32536516 1.82646301,5.52418138 1.73699284,5.67327924 L1.7340716,5.84500239 C1.84261575,6.04072554 1.95631504,6.24017184 2.07207637,6.4377852 L2.37485442,6.42610024 Z"
          id="volleyball-Shape" />
          <path d="M7.24490692,9.38245346 C7.07587589,9.76897375 6.93118854,10.1623675 6.77808115,10.5789021 L6.74359905,10.6726683 L6.84504057,10.8932506 C7.9682864,11.3097852 9.14050597,11.5300239 10.2349976,11.5300239 C10.6283914,11.5300239 11.012506,11.501957 11.3766874,11.4464535 L11.513642,11.331494 C11.5301957,11.2824057 11.5468067,11.2336611 11.5615274,11.1908735 C11.8676277,10.3025871 12.3102816,9.49993317 12.8775179,8.80507876 C14.6701862,6.60922196 17.0803819,5.36477327 20.0411456,5.10638663 C20.2907112,5.08456325 20.5559714,5.07442482 20.8759332,5.07442482 C20.9820143,5.07442482 21.0887255,5.07557041 21.1949212,5.0772315 L21.3308449,4.79679236 C20.1884105,3.39608592 18.6661575,2.18938425 18.1051074,1.85470167 L18.0090501,1.83058711 C17.5975561,1.8496611 16.5728305,1.90270167 15.9451074,1.9828926 C14.0595895,2.22369451 12.3654415,2.99198091 10.909747,4.26644391 C9.37523628,5.6099284 8.14218616,7.33116945 7.24490692,9.38245346 Z"
          id="volleyball-Shape" />
          <path d="M22.6376706,6.74336993 C22.5849737,6.63264916 22.4732792,6.42827685 22.3887924,6.27631504 L22.2415847,6.18793317 C22.0189976,6.18415274 21.786043,6.1828926 21.5591026,6.18443914 L21.4179666,6.45262053 C22.2756659,7.72032458 22.93558,9.04794272 23.379494,10.3984153 L23.543599,10.3608401 L23.5438854,10.5166396 L23.5438854,10.3607828 L23.713031,10.3220048 C23.5502434,9.10390453 23.1884678,7.89983771 22.6376706,6.74336993 Z"
          id="volleyball-Shape" />
          <path d="M10.6138998,23.0540334 C9.50554654,23.0540334 8.41741289,22.9419379 7.37974224,22.7208401 L7.2777852,23.0475036 C8.41260143,23.5211456 9.63551313,23.8155609 10.9127255,23.9225012 C11.0345012,23.9328115 11.2674558,23.9391695 11.4414702,23.9428353 L11.592,23.8601241 C11.6713317,23.7294129 11.7959714,23.5211456 11.9391122,23.2718663 L11.7787303,23.0148544 C11.3867685,23.0408592 10.9948067,23.0540334 10.6138998,23.0540334 Z"
          id="volleyball-Shape" />
          <path d="M20.0009356,6.39133174 L19.9838663,6.36990931 L19.8272076,6.30632936 C19.2699952,6.37878759 18.1176516,6.60269212 16.6601241,7.28889737 L16.5983198,7.55066348 C17.3337852,8.4841432 18.3364582,9.9732315 18.829747,11.0130788 L18.8325537,11.0186348 C20.1797041,13.6118377 20.6294033,16.2124869 20.169222,18.7481814 C20.0583294,19.3585489 19.8953699,19.9570024 19.6845251,20.5269881 L19.9603246,20.714463 C20.5804296,20.1582243 21.1236086,19.5465967 21.6206778,18.8445823 C22.0833795,18.1913126 22.4074654,17.6967637 22.685327,16.8104821 C23.1288974,15.396315 23.1057566,13.8089928 22.6124678,11.8150453 C22.0909403,9.70779952 21.2367351,7.93357518 20.0009356,6.39133174 Z"
          id="volleyball-Shape" />
          <path d="M16.4236754,9.19400477 C16.1737088,8.85479714 15.9052411,8.53311695 15.6202768,8.19133174 L15.5568687,8.11526492 L15.3149785,8.09304057 C14.0560382,9.13936038 13.0817757,10.435074 12.5714177,11.7416134 L12.6025203,11.9176325 C12.6367733,11.9565251 12.6706253,11.9951885 12.7004105,12.029327 C13.3170215,12.7383866 13.7910644,13.5229976 14.1094797,14.3614511 C15.1158186,17.0115322 14.9894606,19.7210119 13.7337852,22.4150263 C13.5614893,22.7844773 13.3583771,23.1347971 13.1824726,23.4288687 L13.3574606,23.6867399 C15.1417088,23.3969642 16.9476086,22.6813747 17.5178807,22.362673 L17.586673,22.2915895 C17.7756372,21.9259189 18.2416038,21.012315 18.4860716,20.4276659 C19.2197041,18.6740048 19.4007064,16.8226253 19.0240955,14.9250215 C18.6269212,12.924315 17.7520955,10.9961814 16.4236754,9.19400477 Z"
          id="volleyball-Shape" />
          <path d="M13.2581957,18.2995704 C12.3022625,18.4344057 11.1033508,18.518148 10.1294893,18.518148 C9.75688783,18.518148 9.42506921,18.5059475 9.14325537,18.4818329 L9.13706921,18.481432 C6.21811933,18.3383484 3.74514558,17.4163819 1.78682578,15.7411933 C1.31553222,15.3381193 0.880840095,14.8957518 0.494663484,14.426463 L0.193603819,14.5702912 C0.361603819,15.3858902 0.616210024,16.1633413 0.972200477,16.9466348 C1.3034463,17.6756277 1.56738902,18.2047733 2.19270644,18.8910931 C3.19091169,19.9869021 4.57368974,20.7665871 6.54449642,21.3451074 C7.93947494,21.7545394 9.31978998,21.9621766 10.6469499,21.9621766 C11.2809737,21.9621766 11.9198663,21.9150931 12.5455274,21.8221862 L12.5717041,21.8185203 L12.7063675,21.7149594 C12.9246014,21.1973842 13.3116372,20.0893174 13.4534033,18.4847542 L13.2581957,18.2995704 Z"
          id="volleyball-Shape" /> </g>
      </g>
    </g>
  </symbol>
  <symbol viewBox="0 0 16 16" id="icon-fav">
    <title>Favroite</title>
    <desc>Created with Sketch.</desc>
    <!-- Generator: Sketch 46 (44423) - http://www.bohemiancoding.com/sketch -->
    <g id="fav-symbols" stroke="none" stroke-width="1">
      <g id="fav-icon_fav_n_d" transform="translate(-16.000000, -16.000000)">
        <path d="M24.3783095,16.2635412 L26.4134901,21.314747 L31.6238153,21.7841259 C31.9851872,21.8168533 32.1321998,22.2896771 31.8578857,22.5385771 L27.9057916,26.1291104 L29.0901058,31.470556 C29.1722357,31.8417529 28.7886888,32.1337152 28.4782375,31.9364899 L24.0005116,29.1047141 L19.5227857,31.9364899 C19.2115131,32.1328539 18.8287875,31.8408916 18.9109175,31.470556 L20.0952316,26.1291104 L16.1423162,22.5377159 C15.8680021,22.2888159 16.0141935,21.815992 16.3763866,21.7832647 L21.5867118,21.3138858 L23.6218925,16.2635412 C23.763156,15.9121529 24.2370459,15.9121529 24.3783095,16.2635412 Z"
        id="fav-Shape-Copy-7" /> </g>
    </g>
  </symbol>
  <symbol viewBox="0 0 24 24" id="icon-addmore">
    <title>Add more bet</title>
    <desc>Created with Sketch.</desc>
    <!-- Generator: Sketch 46 (44423) - http://www.bohemiancoding.com/sketch -->
    <g id="addmore-symbols" stroke="none" stroke-width="1" >
      <g id="addmore-addbet" >
        <g id="addmore-plus">
          <path d="M12,0 C5.38338462,0 0,5.38292308 0,12 C0,18.6170769 5.38338462,24 12,24 C18.6166154,24 24,18.6170769 24,12 C24,5.38292308 18.6166154,0 12,0 Z M17.7692308,12.9230769 L12.9230769,12.9230769 L12.9230769,18 C12.9230769,18.5095385 12.5095385,18.9230769 12,18.9230769 C11.4904615,18.9230769 11.0769231,18.5095385 11.0769231,18 L11.0769231,12.9230769 L6.23076923,12.9230769 C5.72123077,12.9230769 5.30769231,12.5095385 5.30769231,12 C5.30769231,11.4904615 5.72123077,11.0769231 6.23076923,11.0769231 L11.0769231,11.0769231 L11.0769231,6.46153846 C11.0769231,5.952 11.4904615,5.53846154 12,5.53846154 C12.5095385,5.53846154 12.9230769,5.952 12.9230769,6.46153846 L12.9230769,11.0769231 L17.7692308,11.0769231 C18.2787692,11.0769231 18.6923077,11.4904615 18.6923077,12 C18.6923077,12.5095385 18.2787692,12.9230769 17.7692308,12.9230769 Z"
          id="addmore-Shape" /> </g>
      </g>
    </g>
  </symbol>
  <symbol viewBox="0 0 24 24" id="icon-cancel">
    <title>Cancel</title>
    <desc>Created with Sketch.</desc>
    <!-- Generator: Sketch 46 (44423) - http://www.bohemiancoding.com/sketch -->
    <g id="cancel-symbols" stroke="none" stroke-width="1">
      <g id="cancel-close" transform="translate(-10.000000, -10.000000)">
        <g id="cancel-cancel-copy" transform="translate(10.000000, 10.000000)">
          <path d="M15.3818182,12.3272727 C15.1636364,12.1090909 15.1636364,11.7818182 15.3818182,11.5636364 L23.5636364,3.38181818 C23.7818182,3.16363636 23.8909091,2.83636364 23.8909091,2.61818182 C23.8909091,2.4 23.7818182,2.07272727 23.5636364,1.85454545 L22.0363636,0.327272727 C21.8181818,0.109090909 21.4909091,0 21.2727273,0 C20.9454545,0 20.7272727,0.109090909 20.5090909,0.327272727 L12.3272727,8.50909091 C12.1090909,8.72727273 11.7818182,8.72727273 11.5636364,8.50909091 L3.38181818,0.327272727 C3.16363636,0.109090909 2.83636364,0 2.61818182,0 C2.4,0 2.07272727,0.109090909 1.85454545,0.327272727 L0.327272727,1.85454545 C0.109090909,2.07272727 0,2.4 0,2.61818182 C0,2.83636364 0.109090909,3.16363636 0.327272727,3.38181818 L8.50909091,11.5636364 C8.72727273,11.7818182 8.72727273,12.1090909 8.50909091,12.3272727 L0.327272727,20.5090909 C0.109090909,20.7272727 0,21.0545455 0,21.2727273 C0,21.4909091 0.109090909,21.8181818 0.327272727,22.0363636 L1.85454545,23.5636364 C2.07272727,23.7818182 2.4,23.8909091 2.61818182,23.8909091 C2.83636364,23.8909091 3.16363636,23.7818182 3.38181818,23.5636364 L11.5636364,15.3818182 C11.7818182,15.1636364 12.1090909,15.1636364 12.3272727,15.3818182 L20.5090909,23.5636364 C20.7272727,23.7818182 21.0545455,23.8909091 21.2727273,23.8909091 C21.4909091,23.8909091 21.8181818,23.7818182 22.0363636,23.5636364 L23.5636364,22.0363636 C23.7818182,21.8181818 23.8909091,21.4909091 23.8909091,21.2727273 C23.8909091,21.0545455 23.7818182,20.7272727 23.5636364,20.5090909 L15.3818182,12.3272727 Z"
          id="cancel-Shape" /> </g>
      </g>
    </g>
  </symbol>
  <symbol viewBox="0 0 20 21" id="icon-filterexpand">
    <title>Filter</title>
    <desc>Created with Sketch.</desc>
    <!-- Generator: Sketch 46 (44423) - http://www.bohemiancoding.com/sketch -->
    <g id="filterexpand-symbols" stroke="none" stroke-width="1" >
      <g id="filterexpand-icon_filter">
        <g id="filterexpand-sort-descending">
          <path d="M19.3410365,17.1797368 L11.0688896,17.1797368 C10.688348,17.1797368 10.3795359,17.4996827 10.3795359,17.894655 C10.3795359,18.2895935 10.688348,18.6095394 11.0688896,18.6095394 L19.3410365,18.5888529 C19.721578,18.5888529 20.0303902,18.2895935 20.0303902,17.894655 M9.6902148,1.44953909 L19.3410365,1.4481171 C19.721578,1.4481171 20.0303902,1.12959322 20.0303902,0.734620894 C20.0303902,0.339648569 19.721578,0.0197027027 19.3410365,0.0197027027 L9.6902148,0.0197027027 C9.30967324,0.0197027027 9.00086106,0.339648569 9.00086106,0.734620894 M10.8531459,13.0916751 C10.5828944,12.8102582 10.1444791,12.8102582 9.87426032,13.0916751 L6.24347877,17.4204242 L6.24347877,0.0197027027 L4.86480397,0.0197027027 L4.86480397,17.4461214 L1.21193173,13.0916751 C0.941712907,12.8102582 0.503264974,12.8102582 0.233078829,13.0916751 C-0.0371726728,13.373092 -0.0371726728,13.8287356 0.233078829,14.1094077 L5.01849113,19.8151428 C5.1625708,19.965128 5.35419774,20.028677 5.54239344,20.0186893 C5.7312427,20.028677 5.92221608,19.965128 6.06626307,19.8151428 L10.851708,14.1094077 M19.3410365,4.30988899 L9.6902148,4.30988899 C9.30967324,4.30988899 9.00086106,4.62986871 9.00086106,5.02480718 C9.00086106,5.4197795 9.30967324,5.7332926 9.6902148,5.7332926 L19.3410365,5.7332926 C19.721578,5.7332926 20.0303902,5.41974565 20.0303902,5.02480718 M19.3410365,8.59936428 L9.6902148,8.59936428 C9.30967324,8.59936428 9.00086106,8.919344 9.00086106,9.31428247 C9.00086106,9.7092548 9.30967324,10.0177571 9.6902148,10.0177571 L19.3410365,10.0292007 C19.721578,10.0292007 20.0303902,9.70922094 20.0303902,9.31428247 M19.3410365,12.8895506 L13.8262719,12.8895506 C13.4457303,12.8895506 13.1369181,13.2094964 13.1369181,13.6044349 C13.1369181,13.9994072 13.4457303,14.3036436 13.8262719,14.3036436 L19.3410365,14.3036436 C19.721578,14.3036436 20.0303902,13.9994072 20.0303902,13.6044349"
          id="filterexpand-Shape" transform="translate(10.030390, 10.019703) scale(1, -1) translate(-10.030390, -10.019703) " /> </g>
      </g>
    </g>
  </symbol>
  <symbol viewBox="0 0 7 12" id="icon-next">
    <title>Next</title>
    <desc>Created with Sketch.</desc>
    <!-- Generator: Sketch 46 (44423) - http://www.bohemiancoding.com/sketch -->
    <g id="next-Components" stroke="none" stroke-width="1">
      <g id="next-Components---Tabs-&amp;-Titles" transform="translate(-211.000000, -296.000000)" >
        <path d="M217.760319,306.167961 C218.044291,306.465114 218.044291,306.937939 217.76039,307.235119 L217.28111,307.736852 C217.139709,307.884973 216.944641,307.969555 216.739686,307.969555 C216.534732,307.969555 216.339664,307.884973 216.198385,307.73698 L211.212986,302.518394 C210.929014,302.221241 210.929014,301.748416 211.212929,301.451222 L216.198296,296.232703 C216.339698,296.084582 216.534766,296 216.73972,296 C216.944675,296 217.139743,296.084582 217.281034,296.232587 L217.760352,296.734361 C218.044324,297.031514 218.044324,297.504339 217.76041,297.801533 L213.764058,301.984779 L217.760319,306.167961 Z"
        id="next-Shape" transform="translate(214.486669, 301.984777) scale(-1, 1) translate(-214.486669, -301.984777) " /> </g>
    </g>
  </symbol>
  <symbol viewBox="0 0 7 12" id="icon-previous">
    <title>Previous</title>
    <desc>Created with Sketch.</desc>
    <!-- Generator: Sketch 46 (44423) - http://www.bohemiancoding.com/sketch -->
    <g id="previous-Components" stroke="none" stroke-width="1" >
      <g id="previous-Components---Tabs-&amp;-Titles" transform="translate(-211.000000, -296.000000)">
        <path d="M217.760319,306.167961 C218.044291,306.465114 218.044291,306.937939 217.76039,307.235119 L217.28111,307.736852 C217.139709,307.884973 216.944641,307.969555 216.739686,307.969555 C216.534732,307.969555 216.339664,307.884973 216.198385,307.73698 L211.212986,302.518394 C210.929014,302.221241 210.929014,301.748416 211.212929,301.451222 L216.198296,296.232703 C216.339698,296.084582 216.534766,296 216.73972,296 C216.944675,296 217.139743,296.084582 217.281034,296.232587 L217.760352,296.734361 C218.044324,297.031514 218.044324,297.504339 217.76041,297.801533 L213.764058,301.984779 L217.760319,306.167961 Z"
        id="previous-Shape" /> </g>
    </g>
  </symbol>
  <symbol viewBox="0 0 20 20" id="icon-mybet">
    <title>mybet</title>
    <desc>Created with Sketch.</desc>
    <!-- Generator: Sketch 46 (44423) - http://www.bohemiancoding.com/sketch -->
    <g id="mybet-symbols" stroke="none" stroke-width="1" opacity="1">
      <g id="mybet-NAV_bottom_hasbet" transform="translate(-314.000000, -8.000000)" >
        <g id="mybet-club-chip" transform="translate(314.000000, 8.000000)">
          <path d="M9.98222222,0 C4.46915825,0 0,4.46915825 0,9.98222222 C0,15.4952862 4.46915825,19.9644444 9.98222222,19.9644444 C15.4951515,19.9644444 19.9643098,15.4952862 19.9643098,9.98222222 C19.9643098,4.46915825 15.4952189,0 9.98222222,0 Z M12.4550168,13.4632323 C11.7369697,13.4632323 11.0826263,13.193064 10.5858586,12.749899 C10.6227609,13.6711111 10.7445791,14.9073401 11.1156902,15.5714478 L8.84861953,15.5714478 C9.21973064,14.9074074 9.34154882,13.6711785 9.37838384,12.750101 C8.88161616,13.1931313 8.22734007,13.4632323 7.50929293,13.4632323 C5.95676768,13.4632323 4.69824916,12.2046465 4.69824916,10.6520539 C4.69824916,9.19178451 5.81158249,7.99198653 7.23569024,7.85441077 C7.19131313,7.65602694 7.16707071,7.44996633 7.16707071,7.23824916 C7.16707071,5.68565657 8.42558923,4.42713805 9.97824916,4.42713805 C11.5307744,4.42713805 12.7892929,5.68565657 12.7892929,7.23824916 C12.7892929,7.44983165 12.7651852,7.6556229 12.7208081,7.85387205 C14.1485522,7.98787879 15.2659933,9.18922559 15.2659933,10.6521212 C15.2660606,12.2045791 14.0075421,13.4632323 12.4550168,13.4632323 Z"
          id="mybet-Shape" /> </g>
      </g>
    </g>
  </symbol>
  <symbol viewBox="0 0 17 20" id="icon-statement">
    <title>statement</title>
    <desc>Created with Sketch.</desc>
    <!-- Generator: Sketch 46 (44423) - http://www.bohemiancoding.com/sketch -->
    <g id="statement-symbols" stroke="none" stroke-width="1">
      <g id="statement-NAV_bottom_hasbet" transform="translate(-244.000000, -8.000000)" >
        <g id="statement-file" transform="translate(244.000000, 8.000000)">
          <path d="M15.2797495,2.26304802 L14.6951983,2.26304802 L14.6951983,16.624238 C14.6951983,17.5782881 13.9185804,18.3548852 12.9645303,18.3548852 L7.04175365,18.3548852 L2.33194154,18.3548852 L2.33194154,18.8872443 C2.33194154,19.4968685 2.82672234,19.9916284 3.43632568,19.9916284 L9.35699374,19.9916284 L15.2776618,19.9916284 C15.8872651,19.9916284 16.3820251,19.4968685 16.3820251,18.8872443 L16.3820251,3.36743215 C16.3820459,2.75782881 15.8893528,2.26304802 15.2797495,2.26304802 Z"
          id="statement-Shape" />
          <path d="M7.04175365,17.7285804 L12.9624217,17.7285804 C13.5720251,17.7285804 14.0668058,17.2338205 14.0668058,16.624238 L14.0668058,2.26304802 L14.0668058,1.10438413 C14.0668058,0.494780793 13.5720251,0 12.9624217,0 L7.04175365,0 L5.07306889,0 L5.07306889,0.365344468 C5.07722338,0.402922756 5.07933194,0.442588727 5.07933194,0.482254697 L5.07933194,2.88935282 L5.07933194,3.50730689 C5.07933194,4.36534447 4.38204593,5.06263048 3.52400835,5.06263048 L2.90605428,5.06263048 L0.498956159,5.06263048 C0.467640919,5.06263048 0.434237996,5.0605428 0.402922756,5.05845511 L0.0187891441,5.05845511 L0.0187891441,16.624238 C0.0187891441,17.2338205 0.513569937,17.7285804 1.12317328,17.7285804 L2.33402923,17.7285804 L7.04175365,17.7285804 L7.04175365,17.7285804 Z M7.2651357,13.9749478 L3.40501044,13.9749478 C3.11691023,13.9749478 2.88308977,13.7411065 2.88308977,13.4530271 C2.88308977,13.1649061 3.11691023,12.9311065 3.40501044,12.9311065 L7.26722338,12.9311065 C7.55532359,12.9311065 7.78914405,13.1649061 7.78914405,13.4530271 C7.78914405,13.7411065 7.55323591,13.9749478 7.2651357,13.9749478 Z M11.1273486,11.3110856 L3.40501044,11.3110856 C3.11691023,11.3110856 2.88308977,11.0772443 2.88308977,10.7891649 C2.88308977,10.5010438 3.11691023,10.2672443 3.40501044,10.2672443 L11.1273486,10.2672443 C11.4154489,10.2672443 11.6492693,10.5010438 11.6492693,10.7891649 C11.6492693,11.0772443 11.4154489,11.3110856 11.1273486,11.3110856 Z M3.40501044,7.43841336 L11.1273486,7.43841336 C11.4154489,7.43841336 11.6492693,7.67223382 11.6492693,7.96033403 C11.6492693,8.24843424 11.4154489,8.4822547 11.1273486,8.4822547 L3.40501044,8.4822547 C3.11691023,8.4822547 2.88308977,8.24843424 2.88308977,7.96033403 C2.88308977,7.67223382 3.11691023,7.43841336 3.40501044,7.43841336 Z"
          id="statement-Shape" />
          <path d="M0.498956159,4.43632568 L3.52400835,4.43632568 C3.52609603,4.43632568 3.5302714,4.43632568 3.53235908,4.43632568 C4.03757829,4.43215031 4.44676409,4.02296451 4.45093946,3.5177453 C4.45093946,3.51565762 4.45093946,3.51148225 4.45093946,3.50939457 L4.45093946,0.482254697 C4.45093946,0.202505219 4.22129436,0.0167014614 3.98331942,0.0167014614 C3.86849687,0.0167014614 3.75367432,0.0584551148 3.65764092,0.154488518 L0.169102296,3.64300626 C-0.123173278,3.93528184 0.0835073069,4.43632568 0.498956159,4.43632568 Z"
          id="statement-Shape" /> </g>
      </g>
    </g>
  </symbol>
  <symbol viewBox="0 0 24 20" id="icon-tv">
    <title>tv</title>
    <desc>Created with Sketch.</desc>
    <!-- Generator: Sketch 46 (44423) - http://www.bohemiancoding.com/sketch -->
    <g id="tv-symbols" stroke="none" stroke-width="1">
      <g id="tv-NAV_bottom_hasbet" transform="translate(-96.000000, -8.000000)" >
        <g id="tv-computer-screen" transform="translate(96.000000, 8.000000)">
          <path d="M22.6080469,0.0580859375 L22.6080469,0.023125 L22.4910156,0.023125 L1.40351563,0.023125 L1.28648437,0.023125 L1.28648437,0.0580859375 C0.5965625,0.105507812 0.0818359375,0.654414062 0,1.320625 L0,1.43789062 L0,15.3333594 C0,15.6028125 0.0701171875,15.8299219 0.187148438,16.0344922 C0.45640625,16.5085937 0.853867188,16.748125 1.40355469,16.748125 L9.09933594,16.748125 L9.09933594,18.6893359 L7.63742187,18.6893359 C7.27488281,18.6893359 6.99417969,18.9712891 6.99417969,19.3330859 C6.99417969,19.6948828 7.27488281,19.9767969 7.63742187,19.9767969 L16.2571875,19.9767969 C16.6197266,19.9767969 16.9121875,19.6948438 16.9121875,19.3330859 C16.9121875,18.97125 16.6197656,18.6893359 16.2571875,18.6893359 L14.7952734,18.6893359 L14.7952734,16.748125 L22.4910156,16.748125 C23.0409375,16.748125 23.4419141,16.5085937 23.7074219,16.0344922 C23.8279297,15.8199219 23.9062891,15.5903516 23.9062891,15.3333594 L23.9062891,1.43792969 L23.9062891,1.32066406 C23.8244141,0.654414062 23.2747266,0.105507812 22.6080469,0.0580859375 Z M22.6080469,1.43792969 L22.6080469,15.3333984 C22.6080469,15.4157422 22.5730859,15.4506641 22.4910156,15.4506641 L1.40351563,15.4506641 C1.32167969,15.4506641 1.28648438,15.4157422 1.28648438,15.3333984 L1.28648438,1.43792969 L1.28648438,1.32066406 L22.6080078,1.32066406 L22.6080078,1.43792969 L22.6080469,1.43792969 Z"
          id="tv-Shape" /> </g>
      </g>
    </g>
  </symbol>
  <symbol viewBox="0 0 16 15" id="icon-hide">
    <title>Fill 1</title>
    <desc>Created with Sketch.</desc>
    <!-- Generator: Sketch 46 (44423) - http://www.bohemiancoding.com/sketch -->
    <g id="hide-symbols" stroke="none" stroke-width="1" >
      <g id="hide-myaccount_panel" transform="translate(-49.000000, -144.000000)" >
        <path d="M55.6865,154.244841 L56.7765,152.446841 C58.1505,152.637841 59.0375,151.137841 58.1755,150.140841 L59.2655,148.342841 C62.4925,150.734841 59.6175,155.674841 55.6865,154.244841 M53.3465,151.038841 C53.3465,148.619841 55.9405,146.967841 58.3125,147.831841 L57.2235,149.627841 C55.8635,149.433841 54.9565,150.931841 55.8245,151.935841 L54.7345,153.732841 C53.8895,153.102841 53.3465,152.129841 53.3465,151.038841 M60.6365,146.081841 L61.4295,144.772841 C61.7895,144.180841 60.8355,143.671841 60.4775,144.262841 L59.6115,145.690841 C55.1345,144.299841 50.3515,146.686841 49.0225,150.890841 C48.9925,150.986841 48.9925,151.088841 49.0225,151.184841 C49.6895,153.294841 51.2805,155.040841 53.3635,155.993841 L52.5705,157.302841 C52.2115,157.893841 53.1635,158.404841 53.5225,157.812841 L54.3885,156.385841 C58.8655,157.775841 63.6485,155.388841 64.9775,151.184841 C65.0075,151.088841 65.0075,150.986841 64.9775,150.890841 C64.3105,148.781841 62.7195,147.035841 60.6365,146.081841"
        id="hide-Fill-1" /> </g>
    </g>
  </symbol>
  <symbol viewBox="0 0 22 20" id="icon-betsetting">
    <title>Group 4</title>
    <desc>Created with Sketch.</desc>
    <!-- Generator: Sketch 46 (44423) - http://www.bohemiancoding.com/sketch -->
    <g id="betsetting-symbols" stroke="none" stroke-width="1" >
      <g id="betsetting-myaccount_panel" transform="translate(-52.000000, -488.000000)" >
        <g id="betsetting-Group-4" transform="translate(52.000000, 488.000000)">
          <path d="M3.6128,3.8016 L9.5418,3.8016 C9.8368,3.8016 10.0758,4.0406 10.0758,4.3356 C10.0758,4.6306 9.8368,4.8696 9.5418,4.8696 L3.6128,4.8696 C3.3178,4.8696 3.0788,4.6306 3.0788,4.3356 C3.0788,4.0406 3.3178,3.8016 3.6128,3.8016 M10.6748,15.5446 C10.7808,15.4486 10.8158,15.2996 10.7638,15.1726 C10.7098,15.0416 10.5868,14.9736 10.4878,14.9686 L10.4868,14.9686 C9.8398,14.9686 9.1468,14.5256 9.0628,13.7846 C9.0038,13.2546 9.0048,12.7176 9.0668,12.1896 C9.1418,11.5706 9.6198,11.1286 10.2268,11.0446 L3.5718,11.0446 C3.2768,11.0446 3.0378,10.8046 3.0378,10.5096 C3.0378,10.2156 3.2768,9.9766 3.5718,9.9766 L10.3888,9.9766 C10.1978,9.5346 10.2458,9.0086 10.5658,8.6116 C10.7198,8.4186 10.8878,8.2356 11.0638,8.0586 L3.6128,8.0586 C3.3178,8.0586 3.0788,7.8196 3.0788,7.5256 C3.0788,7.2306 3.3178,6.9906 3.6128,6.9906 L12.2818,6.9906 C12.4688,6.9906 12.6248,7.0926 12.7198,7.2376 C13.0138,7.2806 13.2968,7.4086 13.5088,7.6406 C13.5848,7.7246 13.7798,7.7686 13.8808,7.7286 C14.0078,7.6766 14.0888,7.5476 14.0838,7.4066 C14.0708,7.0036 14.2538,6.6456 14.5338,6.3886 L14.5338,2.3936 L15.3138,2.3936 C15.7068,2.3936 16.0258,2.0746 16.0258,1.6816 C16.0258,1.2886 15.7068,0.9696 15.3138,0.9696 L0.7118,0.9696 C0.3188,0.9696 -0.000200000009,1.2886 -0.000200000009,1.6816 C-0.000200000009,2.0746 0.3188,2.3936 0.7118,2.3936 L1.4918,2.3936 L1.4918,17.0086 C1.4918,17.0436 1.5138,17.0746 1.5468,17.0876 C1.5788,17.0996 1.6158,17.0906 1.6398,17.0646 L2.2928,16.3216 C2.3328,16.2756 2.3898,16.2486 2.4508,16.2466 C2.5108,16.2446 2.5708,16.2676 2.6128,16.3106 L3.4048,17.1026 C3.4908,17.1886 3.6298,17.1886 3.7158,17.1026 L4.5178,16.3006 C4.6038,16.2146 4.7428,16.2146 4.8288,16.3006 L5.6318,17.1026 C5.7168,17.1886 5.8568,17.1886 5.9428,17.1026 L6.7438,16.3006 C6.8298,16.2146 6.9688,16.2146 7.0548,16.3006 L7.8578,17.1026 C7.9438,17.1886 8.0828,17.1886 8.1688,17.1026 L8.9708,16.3006 C9.0558,16.2146 9.1958,16.2146 9.2808,16.3006 L10.0838,17.1026 C10.1698,17.1886 10.3088,17.1886 10.3948,17.1026 L10.3988,17.0986 C10.1508,16.5816 10.2378,15.9476 10.6748,15.5446"
          id="betsetting-Fill-1" />
          <path d="M21.9921332,12.3472831 C22.0431332,12.8032831 22.0421332,13.2632831 21.9891332,13.7152831 C21.9681332,13.8912831 21.8091332,14.0242831 21.6371332,14.0102831 L21.5631332,14.0082831 C21.0311332,14.0082831 20.5361332,14.3352831 20.3321332,14.8232831 C20.1151332,15.3422831 20.2511332,15.9452831 20.6691332,16.3242831 C20.8011332,16.4432831 20.8161332,16.6432831 20.7051332,16.7812831 C20.4191332,17.1372831 20.0921332,17.4612831 19.7321332,17.7432831 C19.5941332,17.8502831 19.3971332,17.8342831 19.2781332,17.7052831 C18.9201332,17.3122831 18.2841332,17.1642831 17.7881332,17.3662831 C17.2761332,17.5762831 16.9451332,18.0912831 16.9661332,18.6492831 C16.9711332,18.8242831 16.8421332,18.9742831 16.6681332,18.9932831 C16.4481332,19.0182831 16.2271332,19.0302831 16.0081332,19.0302831 C15.7761332,19.0302831 15.5441332,19.0162831 15.3141332,18.9902831 C15.1391332,18.9702831 15.0091332,18.8152831 15.0191332,18.6382831 C15.0511332,18.0752831 14.7241332,17.5502831 14.2051332,17.3332831 C13.7101332,17.1252831 13.0661332,17.2722831 12.7061332,17.6702831 C12.5871332,17.8022831 12.3861332,17.8172831 12.2481332,17.7062831 C11.8971332,17.4242831 11.5761332,17.0992831 11.2971332,16.7432831 C11.1881332,16.6062831 11.2041332,16.4092831 11.3331332,16.2902831 C11.7441332,15.9132831 11.8801332,15.3162831 11.6701332,14.8032831 C11.4591332,14.2892831 10.9561332,13.9652831 10.4321332,13.9792831 C10.2601332,13.9792831 10.0561332,13.8532831 10.0371332,13.6832831 C9.98713319,13.2272831 9.98713319,12.7672831 10.0401332,12.3152831 C10.0611332,12.1412831 10.1971332,12.0142831 10.3881332,12.0202831 C10.9751332,12.0202831 11.4891332,11.7012831 11.6961332,11.2072831 C11.9141332,10.6882831 11.7791332,10.0852831 11.3601332,9.70628308 C11.2291332,9.58728308 11.2131332,9.38728308 11.3241332,9.24928308 C11.6091332,8.89328308 11.9371332,8.57028308 12.2971332,8.28628308 C12.4351332,8.17928308 12.6331332,8.19528308 12.7511332,8.32528308 C13.1091332,8.71928308 13.7481332,8.86528308 14.2401332,8.66428308 C14.7531332,8.45428308 15.0831332,7.93828308 15.0641332,7.38128308 C15.0581332,7.20628308 15.1871332,7.05528308 15.3621332,7.03628308 C15.8121332,6.98628308 16.2651332,6.98828308 16.7151332,7.04028308 C16.8911332,7.06028308 17.0201332,7.21428308 17.0101332,7.39128308 C16.9781332,7.95428308 17.3051332,8.47928308 17.8231332,8.69728308 C18.3201332,8.90528308 18.9641332,8.75728308 19.3231332,8.36028308 C19.4411332,8.22828308 19.6421332,8.21328308 19.7801332,8.32328308 C20.1301332,8.60428308 20.4501332,8.92728308 20.7331332,9.28528308 C20.8411332,9.42328308 20.8251332,9.62128308 20.6961332,9.73928308 C20.2851332,10.1162831 20.1501332,10.7142831 20.3601332,11.2262831 C20.5651332,11.7272831 21.0541332,12.0512831 21.6051332,12.0512831 C21.7761332,12.0512831 21.9731332,12.1782831 21.9921332,12.3472831 M16.0241332,15.0342831 C17.1311332,15.0342831 18.0311332,14.1342831 18.0311332,13.0282831 C18.0311332,11.9212831 17.1311332,11.0212831 16.0241332,11.0212831 C14.9181332,11.0212831 14.0181332,11.9212831 14.0181332,13.0282831 C14.0181332,14.1342831 14.9181332,15.0342831 16.0241332,15.0342831"
          id="betsetting-Fill-4" /> </g>
      </g>
    </g>
  </symbol>
  <symbol viewBox="0 0 16 13" id="icon-msg">
    <title>Message</title>
    <desc>Created with Sketch.</desc>
    <!-- Generator: Sketch 46 (44423) - http://www.bohemiancoding.com/sketch -->
    <g id="msg-symbols" stroke="none" stroke-width="1" >
      <g id="msg-myaccount_panel" transform="translate(-24.000000, -217.000000)" >
        <g id="msg-messages_ic" transform="translate(8.000000, 199.000000)">
          <g id="msg-Group-2" transform="translate(16.000000, 14.000000)">
            <g id="msg-envelope" transform="translate(0.000000, 4.000000)">
              <path d="M1.5345625,3.89778125 C1.7368125,4.0405 2.34646875,4.464375 3.3635625,5.1691875 C4.3806875,5.874 5.159875,6.4166875 5.70115625,6.79728125 C5.760625,6.839 5.88696875,6.9296875 6.08025,7.06946875 C6.2735625,7.20934375 6.4341875,7.322375 6.562,7.40859375 C6.68990625,7.49478125 6.84453125,7.59146875 7.02603125,7.6985 C7.20746875,7.8054375 7.3785,7.885875 7.53909375,7.939125 C7.69971875,7.9928125 7.84840625,8.01940625 7.9851875,8.01940625 L7.99415625,8.01940625 L8.00315625,8.01940625 C8.1399375,8.01940625 8.2886875,7.99278125 8.4493125,7.939125 C8.60984375,7.885875 8.78103125,7.80534375 8.9623125,7.6985 C9.1436875,7.59134375 9.2983125,7.49475 9.42621875,7.40859375 C9.554125,7.322375 9.714625,7.20934375 9.908,7.06946875 C10.10125,6.9295625 10.22775,6.839 10.2872187,6.79728125 C10.8343437,6.4166875 12.2263125,5.45009375 14.4626875,3.89759375 C14.896875,3.594375 15.259625,3.2285 15.5510312,2.80021875 C15.8426562,2.372125 15.9883125,1.92303125 15.9883125,1.4531875 C15.9883125,1.0605625 15.8469687,0.72446875 15.5644062,0.4449375 C15.281875,0.16534375 14.94725,0.025625 14.56075,0.025625 L1.42746875,0.025625 C0.9695,0.025625 0.6170625,0.18025 0.37021875,0.4895 C0.12340625,0.7988125 0,1.1854375 0,1.64934375 C0,2.0240625 0.163625,2.430125 0.49071875,2.86728125 C0.81778125,3.30446875 1.16584375,3.648 1.5345625,3.89778125 Z"
              id="msg-Shape" />
              <path d="M15.096,4.85234375 C13.14525,6.1726875 11.664,7.1988125 10.6529687,7.9305 C10.3139375,8.18021875 10.0389062,8.37515625 9.8276875,8.51484375 C9.61646875,8.654625 9.3355625,8.797375 8.9845625,8.94303125 C8.6336875,9.08890625 8.3066875,9.161625 8.00328125,9.161625 L7.9941875,9.161625 L7.98521875,9.161625 C7.681875,9.161625 7.3546875,9.08890625 7.0038125,8.94303125 C6.6529375,8.797375 6.37184375,8.654625 6.1606875,8.51484375 C5.94959375,8.37515625 5.67446875,8.18021875 5.33546875,7.9305 C4.5324375,7.3416875 3.054375,6.3155 0.90121875,4.85234375 C0.56209375,4.62646875 0.26171875,4.3675625 0,4.07615625 L0,11.1600625 C0,11.552875 0.13971875,11.8887813 0.4193125,12.1683438 C0.69884375,12.448 1.03496875,12.5877813 1.4275625,12.5877813 L14.560875,12.5877813 C14.953375,12.5877813 15.2894687,12.448 15.5690313,12.1683438 C15.8486875,11.8886875 15.9883438,11.5529063 15.9883438,11.1600625 L15.9883438,4.07615625 C15.7325312,4.36153125 15.4352187,4.6204375 15.096,4.85234375 Z"
              id="msg-Shape" /> </g>
          </g>
        </g>
      </g>
    </g>
  </symbol>
  
  <symbol viewBox="0 0 17 17" id="icon-oddstype">
    <title>Group 4</title>
    <desc>Created with Sketch.</desc>
    <!-- Generator: Sketch 46 (44423) - http://www.bohemiancoding.com/sketch -->
    <g id="oddstype-symbols" stroke="none" stroke-width="1" >
      <g id="oddstype-myaccount_panel" transform="translate(-24.000000, -263.000000)">
        <g id="oddstype-odds_ic" transform="translate(7.000000, 248.000000)">
          <g id="oddstype-odds" transform="translate(17.000000, 15.000000)">
            <g id="oddstype-Group-4">
              <rect id="oddstype-Rectangle-2" x="0" y="0" width="7.28057321" height="7.28057321" rx="1" />
              <rect id="oddstype-Rectangle-2" x="8.77740334" y="0" width="7.28057321" height="7.28057321" rx="1" />
              <rect id="oddstype-Rectangle-2" x="0" y="8.77740334" width="7.28057321" height="7.28057321" rx="1" />
              <rect id="oddstype-Rectangle-2" x="8.77740334" y="8.77740334" width="7.28057321" height="7.28057321" rx="1" /> </g>
          </g>
        </g>
      </g>
    </g>
  </symbol>
  <symbol viewBox="0 0 24 24" id="icon-setting">
    <title>settings</title>
    <desc>Created with Sketch.</desc>
    <!-- Generator: Sketch 46.2 (44496) - http://www.bohemiancoding.com/sketch -->
    <g id="setting-symbols" stroke="none" stroke-width="1" >
      <g id="setting-P_button_betslip_config" transform="translate(-28.000000, -12.000000)" >
        <g id="setting-settings" transform="translate(28.000000, 12.000000)">
          <path d="M22.7574113,9.47473904 C23.473904,9.59498956 23.9949896,10.2112735 23.9849687,10.9377871 L23.9849687,13.0471816 C23.9849687,13.7736952 23.4638831,14.3899791 22.7473904,14.5102296 L21.0638831,14.7908142 C20.8935282,15.3519833 20.663048,15.8981211 20.3874739,16.4242171 L21.3795407,17.817119 C21.8004175,18.4083507 21.7302714,19.2150313 21.2192067,19.726096 L19.726096,21.2192067 C19.4455115,21.4997912 19.074739,21.6551148 18.6789144,21.6551148 C18.3682672,21.6551148 18.0676409,21.5599165 17.817119,21.3795407 L16.4292276,20.3874739 C15.908142,20.663048 15.3620042,20.8885177 14.7958246,21.0638831 L14.5102296,22.7473904 C14.3899791,23.4638831 13.7736952,23.9849687 13.0471816,23.9849687 L10.9327766,23.9849687 C10.206263,23.9849687 9.58997912,23.4638831 9.4697286,22.7473904 L9.18914405,21.0638831 C8.64300626,20.8935282 8.11189979,20.6780793 7.60584551,20.4125261 L6.19791232,21.4146138 C5.9473904,21.5949896 5.65177453,21.6901879 5.34112735,21.6901879 C4.94530271,21.6901879 4.57453027,21.5348643 4.29394572,21.2542797 L2.80083507,19.7611691 C2.28475992,19.2501044 2.21962422,18.4434238 2.64050104,17.8521921 L3.62755741,16.4793319 C3.34697286,15.9582463 3.11649269,15.4121086 2.94112735,14.8509395 L1.23757829,14.560334 C0.521085595,14.4400835 0,13.8237996 0,13.097286 L0,10.9878914 C0,10.2613779 0.521085595,9.64509395 1.23757829,9.52484342 L2.90104384,9.24425887 C3.07139875,8.67807933 3.29185804,8.13194154 3.56743215,7.60584551 L2.56534447,6.19791232 C2.14446764,5.60668058 2.21461378,4.8 2.7256785,4.28893528 L4.22379958,2.79582463 C4.4993737,2.51524008 4.87515658,2.35991649 5.27098121,2.35991649 C5.58162839,2.35991649 5.8822547,2.45511482 6.13277662,2.63549061 L7.51064718,3.62755741 C8.03173278,3.34697286 8.57787056,3.11649269 9.13903967,2.94112735 L9.42964509,1.23757829 C9.54989562,0.521085595 10.1661795,0 10.8926931,0 L13.0020877,0 C13.7286013,0 14.3448852,0.521085595 14.4651357,1.23757829 L14.7457203,2.90104384 C15.3319415,3.07640919 15.8981211,3.31189979 16.4392484,3.59749478 L17.8321503,2.60542797 C18.0826722,2.42505219 18.3782881,2.32985386 18.6889353,2.32985386 C19.0847599,2.32985386 19.4555324,2.48517745 19.7361169,2.765762 L21.2292276,4.25887265 C21.7453027,4.76993737 21.8104384,5.57661795 21.3895616,6.16784969 L20.3974948,7.55574113 C20.6730689,8.07682672 20.8985386,8.62296451 21.073904,9.18914405 L22.7574113,9.47473904 Z M12,8 C9.7928364,8 8,9.7928364 8,12 C8,14.2071636 9.7928364,16 12,16 C14.2071636,16 16,14.2071636 16,12 C16,9.7928364 14.2071636,8 12,8 Z"
          id="setting-Combined-Shape" /> </g>
      </g>
    </g>
  </symbol>
  <symbol viewBox="0 0 22 23" id="icon-passwordSetting">
    <title>Password setting</title>
    <desc>Created with Sketch.</desc>
    <!-- Generator: Sketch 46 (44423) - http://www.bohemiancoding.com/sketch -->
    <g id="passwordSetting-symbols" stroke="none" stroke-width="1" >
      <g id="passwordSetting-myaccount_panel" transform="translate(-24.000000, -546.000000)" >
        <g id="passwordSetting-Group-3" transform="translate(24.000000, 546.000000)">
          <path d="M7.7441,8.3364 L4.1791,8.3364 L4.1791,6.4534 C4.1791,4.3794 5.8641,2.6654 7.9331,2.6654 C10.0011,2.6654 11.6871,4.3794 11.6871,6.4534 L11.6871,8.3364 L8.1211,8.3364 L7.7441,8.3364 Z M10.5301,20.3814 C10.1001,19.8394 10.1641,19.0444 10.6751,18.5744 C10.7811,18.4784 10.8161,18.3294 10.7641,18.2024 C10.7101,18.0714 10.5871,18.0034 10.4881,17.9984 L10.4871,17.9984 C9.8401,17.9984 9.1461,17.5554 9.0631,16.8144 C9.0041,16.2844 9.0051,15.7474 9.0661,15.2194 C9.1501,14.5344 9.7181,14.0404 10.4191,14.0404 C10.6311,14.0144 10.7441,13.9584 10.7941,13.8394 C10.8471,13.7124 10.8131,13.5624 10.7081,13.4674 C10.1851,12.9924 10.1231,12.1904 10.5651,11.6414 C10.8961,11.2284 11.2781,10.8504 11.6991,10.5204 C12.2491,10.0944 13.0431,10.1604 13.5091,10.6704 C13.5851,10.7544 13.7801,10.7984 13.8801,10.7584 C14.0071,10.7064 14.0891,10.5774 14.0841,10.4364 C14.0601,9.7434 14.5811,9.1404 15.2691,9.0624 C15.4151,9.0464 15.5591,9.0464 15.7051,9.0404 C15.5081,8.6204 15.1511,8.3364 14.7401,8.3364 L14.3381,8.3364 L14.3381,6.4534 C14.3381,2.9714 11.5751,0.0634 8.1211,0.0014 C8.0271,-0.0006 7.8391,-0.0006 7.7441,0.0014 C4.2911,0.0634 1.5281,2.9714 1.5281,6.4534 L1.5281,8.3364 L1.1251,8.3364 C0.5061,8.3364 9.99999975e-05,8.9764 9.99999975e-05,9.7664 L9.99999975e-05,19.2084 C9.99999975e-05,19.9974 0.5061,20.6424 1.1251,20.6424 L10.7601,20.6424 C10.6831,20.5544 10.6011,20.4724 10.5301,20.3814 L10.5301,20.3814 Z"
          id="passwordSetting-Fill-1" />
          <path d="M21.9922,15.3471 C22.0432,15.8031 22.0422,16.2631 21.9892,16.7151 C21.9682,16.8911 21.8092,17.0241 21.6372,17.0101 L21.5632,17.0081 C21.0312,17.0081 20.5362,17.3351 20.3322,17.8231 C20.1152,18.3421 20.2512,18.9451 20.6692,19.3241 C20.8012,19.4431 20.8162,19.6431 20.7052,19.7811 C20.4192,20.1371 20.0922,20.4611 19.7322,20.7431 C19.5942,20.8501 19.3972,20.8341 19.2782,20.7051 C18.9202,20.3121 18.2842,20.1641 17.7882,20.3661 C17.2762,20.5761 16.9452,21.0911 16.9662,21.6491 C16.9712,21.8241 16.8422,21.9741 16.6682,21.9931 C16.4482,22.0181 16.2272,22.0301 16.0082,22.0301 C15.7762,22.0301 15.5442,22.0161 15.3142,21.9901 C15.1392,21.9701 15.0092,21.8151 15.0192,21.6381 C15.0512,21.0751 14.7242,20.5501 14.2052,20.3331 C13.7102,20.1251 13.0662,20.2721 12.7062,20.6701 C12.5872,20.8021 12.3862,20.8171 12.2482,20.7061 C11.8972,20.4241 11.5762,20.0991 11.2972,19.7431 C11.1882,19.6061 11.2042,19.4091 11.3332,19.2901 C11.7442,18.9131 11.8802,18.3161 11.6702,17.8031 C11.4592,17.2891 10.9562,16.9651 10.4322,16.9791 C10.2602,16.9791 10.0562,16.8531 10.0372,16.6831 C9.9872,16.2271 9.9872,15.7671 10.0402,15.3151 C10.0612,15.1411 10.1972,15.0141 10.3882,15.0201 C10.9752,15.0201 11.4892,14.7011 11.6962,14.2071 C11.9142,13.6881 11.7792,13.0851 11.3602,12.7061 C11.2292,12.5871 11.2132,12.3871 11.3242,12.2491 C11.6092,11.8931 11.9372,11.5701 12.2972,11.2861 C12.4352,11.1791 12.6332,11.1951 12.7512,11.3251 C13.1092,11.7191 13.7482,11.8651 14.2402,11.6641 C14.7532,11.4541 15.0832,10.9381 15.0642,10.3811 C15.0582,10.2061 15.1872,10.0551 15.3622,10.0361 C15.8122,9.9861 16.2652,9.9881 16.7152,10.0401 C16.8912,10.0601 17.0202,10.2141 17.0102,10.3911 C16.9782,10.9541 17.3052,11.4791 17.8232,11.6971 C18.3202,11.9051 18.9642,11.7571 19.3232,11.3601 C19.4412,11.2281 19.6422,11.2131 19.7802,11.3231 C20.1302,11.6041 20.4502,11.9271 20.7332,12.2851 C20.8412,12.4231 20.8252,12.6211 20.6962,12.7391 C20.2852,13.1161 20.1502,13.7141 20.3602,14.2261 C20.5652,14.7271 21.0542,15.0511 21.6052,15.0511 C21.7762,15.0511 21.9732,15.1781 21.9922,15.3471 M16.0242,18.0341 C17.1312,18.0341 18.0312,17.1341 18.0312,16.0281 C18.0312,14.9211 17.1312,14.0211 16.0242,14.0211 C14.9182,14.0211 14.0182,14.9211 14.0182,16.0281 C14.0182,17.1341 14.9182,18.0341 16.0242,18.0341"
          id="passwordSetting-Fill-3" /> </g>
      </g>
    </g>
  </symbol>
</svg>